<svg width="16" height="16" viewBox="0 0 16 16" fill="none" xmlns="http://www.w3.org/2000/svg">
<g clip-path="url(#clip0_37_9683)">
<path d="M14.9422 7.79112C13.4444 5.02224 10.8177 3.34668 7.91107 3.34668C5.0044 3.34668 2.37329 5.02224 0.888849 7.79112L0.764404 8.00001L0.87996 8.21335C2.37774 10.9822 5.0044 12.6578 7.91107 12.6578C10.8177 12.6578 13.4488 11.0045 14.9422 8.21335L15.0577 8.00001L14.9422 7.79112ZM7.91107 11.7467C5.40885 11.7467 3.11107 10.3511 1.77774 8.00001C3.11107 5.6489 5.40885 4.25335 7.91107 4.25335C10.4133 4.25335 12.6844 5.65335 14.04 8.00001C12.6844 10.3511 10.4088 11.7467 7.91107 11.7467Z" fill="#3C3731"/>
<path d="M8.0401 11.0623C9.72396 11.0623 11.089 9.69722 11.089 8.01337C11.089 6.32951 9.72396 4.96448 8.0401 4.96448C6.35625 4.96448 4.99121 6.32951 4.99121 8.01337C4.99121 9.69722 6.35625 11.0623 8.0401 11.0623Z" fill="#3C3731"/>
</g>
<defs>
<clipPath id="clip0_37_9683">
<rect width="16" height="16" fill="white"/>
</clipPath>
</defs>
</svg>