<svg xmlns="http://www.w3.org/2000/svg" fill="none" viewBox="0 0 24 24"><path fill="#FF6536" d="M2.542 11.705s.948 1.393 2.935 2.572c0 0-1.44-12.164 7.939-14.277-2.403 8.818 3.056 11.305 5.046 6.646 3.323 4.437.8 8.308.8 8.308 1.362.196 2.507-1.293 2.507-1.293.01.184.016.369.016.555C21.785 19.619 17.405 24 12 24c-5.403 0-9.784-4.38-9.784-9.785a9.8 9.8 0 0 1 .326-2.51Z"/><path fill="#FF421D" d="M21.769 13.662s-1.145 1.488-2.507 1.292c0 0 2.523-3.871-.8-8.308-1.99 4.659-7.45 2.172-5.047-6.646-.502.113-.973.255-1.415.423V24c5.404 0 9.785-4.38 9.785-9.785 0-.185-.006-.37-.016-.553Z"/><path fill="#FBBF00" d="M7.708 19.709a4.291 4.291 0 1 0 7.157-3.194c-1.66 2.253-4.024-1.166-2.18-3.663 0 0-4.977.624-4.977 6.857Z"/><path fill="#FFA900" d="M16.291 19.709a4.28 4.28 0 0 0-1.425-3.194c-1.66 2.253-4.024-1.166-2.181-3.663 0 0-.27.034-.685.165V24a4.291 4.291 0 0 0 4.291-4.291Z"/></svg>
